<svg width="857px" height="188px"
 viewBox="0.00 0.00 856.90 188.00" xmlns="http://www.w3.org/2000/svg" xmlns:xlink="http://www.w3.org/1999/xlink">
<g id="graph0" class="graph" transform="scale(1.0 1.0) rotate(0.0) translate(4.0 184.0)">
<title>packageGraph</title>
<polygon fill="white" stroke="transparent" points="-4,4 -4,-184 852.9,-184 852.9,4 -4,4"/>
<!-- com.sankuai.inf.leaf.segment.dao.impl -->
<g id="node1" class="node">
<title>com.sankuai.inf.leaf.segment.dao.impl</title>
<polygon fill="none" stroke="black" points="232.91,-180 0.03,-180 0.03,-144 232.91,-144 232.91,-180"/>
<text text-anchor="middle" x="116.47" y="-157.8" font-family="Times,serif" font-size="14.00">com.sankuai.inf.leaf.segment.dao.impl</text>
</g>
<!-- com.sankuai.inf.leaf.segment.dao -->
<g id="node2" class="node">
<title>com.sankuai.inf.leaf.segment.dao</title>
<polygon fill="none" stroke="black" points="320.24,-108 116.7,-108 116.7,-72 320.24,-72 320.24,-108"/>
<text text-anchor="middle" x="218.47" y="-85.8" font-family="Times,serif" font-size="14.00">com.sankuai.inf.leaf.segment.dao</text>
</g>
<!-- com.sankuai.inf.leaf.segment.dao.impl&#45;&gt;com.sankuai.inf.leaf.segment.dao -->
<g id="edge1" class="edge">
<title>com.sankuai.inf.leaf.segment.dao.impl&#45;&gt;com.sankuai.inf.leaf.segment.dao</title>
<path fill="none" stroke="black" d="M141.42,-143.88C154.51,-134.89 170.73,-123.76 184.91,-114.03"/>
<polygon fill="black" stroke="black" points="187.16,-116.73 193.42,-108.19 183.2,-110.96 187.16,-116.73"/>
</g>
<!-- com.sankuai.inf.leaf.segment.model -->
<g id="node3" class="node">
<title>com.sankuai.inf.leaf.segment.model</title>
<polygon fill="none" stroke="black" points="327.52,-36 109.42,-36 109.42,0 327.52,0 327.52,-36"/>
<text text-anchor="middle" x="218.47" y="-13.8" font-family="Times,serif" font-size="14.00">com.sankuai.inf.leaf.segment.model</text>
</g>
<!-- com.sankuai.inf.leaf.segment.dao.impl&#45;&gt;com.sankuai.inf.leaf.segment.model -->
<g id="edge2" class="edge">
<title>com.sankuai.inf.leaf.segment.dao.impl&#45;&gt;com.sankuai.inf.leaf.segment.model</title>
<path fill="none" stroke="black" d="M108.82,-143.82C101.59,-124.75 93.72,-93.81 107.47,-72 116.1,-58.31 129.35,-48.09 143.72,-40.47"/>
<polygon fill="black" stroke="black" points="145.33,-43.58 152.79,-36.05 142.26,-37.29 145.33,-43.58"/>
</g>
<!-- com.sankuai.inf.leaf.segment.dao&#45;&gt;com.sankuai.inf.leaf.segment.model -->
<g id="edge3" class="edge">
<title>com.sankuai.inf.leaf.segment.dao&#45;&gt;com.sankuai.inf.leaf.segment.model</title>
<path fill="none" stroke="black" d="M218.47,-71.7C218.47,-63.98 218.47,-54.71 218.47,-46.11"/>
<polygon fill="black" stroke="black" points="221.97,-46.1 218.47,-36.1 214.97,-46.1 221.97,-46.1"/>
</g>
<!-- com.sankuai.inf.leaf.segment -->
<g id="node4" class="node">
<title>com.sankuai.inf.leaf.segment</title>
<polygon fill="none" stroke="black" points="448.53,-180 268.42,-180 268.42,-144 448.53,-144 448.53,-180"/>
<text text-anchor="middle" x="358.47" y="-157.8" font-family="Times,serif" font-size="14.00">com.sankuai.inf.leaf.segment</text>
</g>
<!-- com.sankuai.inf.leaf.segment&#45;&gt;com.sankuai.inf.leaf.segment.dao -->
<g id="edge6" class="edge">
<title>com.sankuai.inf.leaf.segment&#45;&gt;com.sankuai.inf.leaf.segment.dao</title>
<path fill="none" stroke="black" d="M324.22,-143.88C305.41,-134.47 281.89,-122.71 261.81,-112.67"/>
<polygon fill="black" stroke="black" points="263.36,-109.53 252.85,-108.19 260.23,-115.79 263.36,-109.53"/>
</g>
<!-- com.sankuai.inf.leaf.segment&#45;&gt;com.sankuai.inf.leaf.segment.model -->
<g id="edge7" class="edge">
<title>com.sankuai.inf.leaf.segment&#45;&gt;com.sankuai.inf.leaf.segment.model</title>
<path fill="none" stroke="black" d="M356.93,-143.96C354.34,-124.44 347.48,-92.52 329.47,-72 317.64,-58.51 301.62,-48.17 285.43,-40.36"/>
<polygon fill="black" stroke="black" points="286.47,-36.99 275.91,-36.05 283.58,-43.37 286.47,-36.99"/>
</g>
<!-- com.sankuai.inf.leaf -->
<g id="node5" class="node">
<title>com.sankuai.inf.leaf</title>
<polygon fill="none" stroke="black" points="544.37,-108 414.57,-108 414.57,-72 544.37,-72 544.37,-108"/>
<text text-anchor="middle" x="479.47" y="-85.8" font-family="Times,serif" font-size="14.00">com.sankuai.inf.leaf</text>
</g>
<!-- com.sankuai.inf.leaf.segment&#45;&gt;com.sankuai.inf.leaf -->
<g id="edge4" class="edge">
<title>com.sankuai.inf.leaf.segment&#45;&gt;com.sankuai.inf.leaf</title>
<path fill="none" stroke="black" d="M388.07,-143.88C404.04,-134.64 423.93,-123.13 441.08,-113.21"/>
<polygon fill="black" stroke="black" points="442.85,-116.23 449.76,-108.19 439.35,-110.17 442.85,-116.23"/>
</g>
<!-- com.sankuai.inf.leaf.common -->
<g id="node6" class="node">
<title>com.sankuai.inf.leaf.common</title>
<polygon fill="none" stroke="black" points="570.87,-36 388.07,-36 388.07,0 570.87,0 570.87,-36"/>
<text text-anchor="middle" x="479.47" y="-13.8" font-family="Times,serif" font-size="14.00">com.sankuai.inf.leaf.common</text>
</g>
<!-- com.sankuai.inf.leaf.segment&#45;&gt;com.sankuai.inf.leaf.common -->
<g id="edge5" class="edge">
<title>com.sankuai.inf.leaf.segment&#45;&gt;com.sankuai.inf.leaf.common</title>
<path fill="none" stroke="black" d="M364.74,-143.84C372.3,-124.79 386.4,-93.85 405.47,-72 415.52,-60.49 428.53,-50.11 440.84,-41.66"/>
<polygon fill="black" stroke="black" points="442.79,-44.56 449.2,-36.12 438.93,-38.72 442.79,-44.56"/>
</g>
<!-- com.sankuai.inf.leaf&#45;&gt;com.sankuai.inf.leaf.common -->
<g id="edge8" class="edge">
<title>com.sankuai.inf.leaf&#45;&gt;com.sankuai.inf.leaf.common</title>
<path fill="none" stroke="black" d="M473.56,-71.7C472.76,-63.98 472.53,-54.71 472.88,-46.11"/>
<polygon fill="black" stroke="black" points="476.37,-46.32 473.58,-36.1 469.39,-45.84 476.37,-46.32"/>
</g>
<!-- com.sankuai.inf.leaf.common&#45;&gt;com.sankuai.inf.leaf -->
<g id="edge9" class="edge">
<title>com.sankuai.inf.leaf.common&#45;&gt;com.sankuai.inf.leaf</title>
<path fill="none" stroke="black" d="M485.37,-36.1C486.17,-43.79 486.41,-53.05 486.08,-61.67"/>
<polygon fill="black" stroke="black" points="482.58,-61.48 485.39,-71.7 489.56,-61.96 482.58,-61.48"/>
</g>
<!-- com.sankuai.inf.leaf.snowflake.exception -->
<g id="node7" class="node">
<title>com.sankuai.inf.leaf.snowflake.exception</title>
<polygon fill="none" stroke="black" points="848.83,-108 600.11,-108 600.11,-72 848.83,-72 848.83,-108"/>
<text text-anchor="middle" x="724.47" y="-85.8" font-family="Times,serif" font-size="14.00">com.sankuai.inf.leaf.snowflake.exception</text>
</g>
<!-- com.sankuai.inf.leaf.snowflake -->
<g id="node8" class="node">
<title>com.sankuai.inf.leaf.snowflake</title>
<polygon fill="none" stroke="black" points="667.9,-180 477.04,-180 477.04,-144 667.9,-144 667.9,-180"/>
<text text-anchor="middle" x="572.47" y="-157.8" font-family="Times,serif" font-size="14.00">com.sankuai.inf.leaf.snowflake</text>
</g>
<!-- com.sankuai.inf.leaf.snowflake&#45;&gt;com.sankuai.inf.leaf -->
<g id="edge10" class="edge">
<title>com.sankuai.inf.leaf.snowflake&#45;&gt;com.sankuai.inf.leaf</title>
<path fill="none" stroke="black" d="M549.48,-143.7C537.66,-134.8 523.08,-123.82 510.29,-114.2"/>
<polygon fill="black" stroke="black" points="512.29,-111.32 502.2,-108.1 508.08,-116.91 512.29,-111.32"/>
</g>
<!-- com.sankuai.inf.leaf.snowflake&#45;&gt;com.sankuai.inf.leaf.common -->
<g id="edge11" class="edge">
<title>com.sankuai.inf.leaf.snowflake&#45;&gt;com.sankuai.inf.leaf.common</title>
<path fill="none" stroke="black" d="M572.41,-143.87C571.56,-124.85 567.84,-93.94 553.47,-72 545.6,-59.98 533.98,-49.81 522.28,-41.7"/>
<polygon fill="black" stroke="black" points="524.07,-38.69 513.79,-36.15 520.25,-44.55 524.07,-38.69"/>
</g>
<!-- com.sankuai.inf.leaf.snowflake&#45;&gt;com.sankuai.inf.leaf.snowflake.exception -->
<g id="edge12" class="edge">
<title>com.sankuai.inf.leaf.snowflake&#45;&gt;com.sankuai.inf.leaf.snowflake.exception</title>
<path fill="none" stroke="black" d="M609.65,-143.88C630.34,-134.35 656.27,-122.41 678.26,-112.28"/>
<polygon fill="black" stroke="black" points="679.79,-115.43 687.41,-108.07 676.86,-109.07 679.79,-115.43"/>
</g>
</g>
</svg>
