<svg width="4004px" height="260px"
 viewBox="0.00 0.00 4003.81 260.00" xmlns="http://www.w3.org/2000/svg" xmlns:xlink="http://www.w3.org/1999/xlink">
<g id="graph0" class="graph" transform="scale(1.0 1.0) rotate(0.0) translate(4.0 256.0)">
<title>packageGraphWithExternalDeps</title>
<polygon fill="white" stroke="transparent" points="-4,4 -4,-256 3999.81,-256 3999.81,4 -4,4"/>
<!-- com.sankuai.inf.leaf.segment.dao.impl -->
<g id="node1" class="node">
<title>com.sankuai.inf.leaf.segment.dao.impl</title>
<polygon fill="none" stroke="black" points="589.52,-252 356.63,-252 356.63,-216 589.52,-216 589.52,-252"/>
<text text-anchor="middle" x="473.08" y="-229.8" font-family="Times,serif" font-size="14.00">com.sankuai.inf.leaf.segment.dao.impl</text>
</g>
<!-- com.sankuai.inf.leaf.segment.dao -->
<g id="node2" class="node">
<title>com.sankuai.inf.leaf.segment.dao</title>
<polygon fill="none" stroke="black" points="1171.85,-180 968.31,-180 968.31,-144 1171.85,-144 1171.85,-180"/>
<text text-anchor="middle" x="1070.08" y="-157.8" font-family="Times,serif" font-size="14.00">com.sankuai.inf.leaf.segment.dao</text>
</g>
<!-- com.sankuai.inf.leaf.segment.dao.impl&#45;&gt;com.sankuai.inf.leaf.segment.dao -->
<g id="edge1" class="edge">
<title>com.sankuai.inf.leaf.segment.dao.impl&#45;&gt;com.sankuai.inf.leaf.segment.dao</title>
<path fill="none" stroke="black" d="M589.85,-221.31C687.34,-211.27 829.92,-195.93 954.08,-180 955.38,-179.83 956.7,-179.66 958.02,-179.49"/>
<polygon fill="black" stroke="black" points="958.8,-182.92 968.26,-178.13 957.88,-175.98 958.8,-182.92"/>
</g>
<!-- com.sankuai.inf.leaf.segment.model -->
<g id="node3" class="node">
<title>com.sankuai.inf.leaf.segment.model</title>
<polygon fill="none" stroke="black" points="912.13,-108 694.03,-108 694.03,-72 912.13,-72 912.13,-108"/>
<text text-anchor="middle" x="803.08" y="-85.8" font-family="Times,serif" font-size="14.00">com.sankuai.inf.leaf.segment.model</text>
</g>
<!-- com.sankuai.inf.leaf.segment.dao.impl&#45;&gt;com.sankuai.inf.leaf.segment.model -->
<g id="edge2" class="edge">
<title>com.sankuai.inf.leaf.segment.dao.impl&#45;&gt;com.sankuai.inf.leaf.segment.model</title>
<path fill="none" stroke="black" d="M372.91,-215.98C316.6,-202.18 263.39,-179.16 295.08,-144 320.64,-115.63 541.77,-101.45 683.73,-95.2"/>
<polygon fill="black" stroke="black" points="683.97,-98.69 693.81,-94.76 683.67,-91.7 683.97,-98.69"/>
</g>
<!-- org.apache.ibatis.mapping -->
<g id="node4" class="node">
<title>org.apache.ibatis.mapping</title>
<polygon fill="none" stroke="#ff4040" points="247.92,-180 84.23,-180 84.23,-144 247.92,-144 247.92,-180"/>
<text text-anchor="middle" x="166.08" y="-157.8" font-family="Times,serif" font-size="14.00">org.apache.ibatis.mapping</text>
</g>
<!-- com.sankuai.inf.leaf.segment.dao.impl&#45;&gt;org.apache.ibatis.mapping -->
<g id="edge3" class="edge">
<title>com.sankuai.inf.leaf.segment.dao.impl&#45;&gt;org.apache.ibatis.mapping</title>
<path fill="none" stroke="black" d="M398.37,-215.97C353.81,-205.8 297.09,-192.87 250.85,-182.33"/>
<polygon fill="black" stroke="black" points="251.38,-178.86 240.85,-180.05 249.83,-185.69 251.38,-178.86"/>
</g>
<!-- org.apache.ibatis.session -->
<g id="node5" class="node">
<title>org.apache.ibatis.session</title>
<polygon fill="none" stroke="#ff4040" points="458.37,-180 303.79,-180 303.79,-144 458.37,-144 458.37,-180"/>
<text text-anchor="middle" x="381.08" y="-157.8" font-family="Times,serif" font-size="14.00">org.apache.ibatis.session</text>
</g>
<!-- com.sankuai.inf.leaf.segment.dao.impl&#45;&gt;org.apache.ibatis.session -->
<g id="edge4" class="edge">
<title>com.sankuai.inf.leaf.segment.dao.impl&#45;&gt;org.apache.ibatis.session</title>
<path fill="none" stroke="black" d="M450.34,-215.7C438.64,-206.8 424.22,-195.82 411.57,-186.2"/>
<polygon fill="black" stroke="black" points="413.64,-183.37 403.56,-180.1 409.4,-188.94 413.64,-183.37"/>
</g>
<!-- org.apache.ibatis.transaction -->
<g id="node6" class="node">
<title>org.apache.ibatis.transaction</title>
<polygon fill="none" stroke="#ff4040" points="651.85,-180 476.31,-180 476.31,-144 651.85,-144 651.85,-180"/>
<text text-anchor="middle" x="564.08" y="-157.8" font-family="Times,serif" font-size="14.00">org.apache.ibatis.transaction</text>
</g>
<!-- com.sankuai.inf.leaf.segment.dao.impl&#45;&gt;org.apache.ibatis.transaction -->
<g id="edge5" class="edge">
<title>com.sankuai.inf.leaf.segment.dao.impl&#45;&gt;org.apache.ibatis.transaction</title>
<path fill="none" stroke="black" d="M495.57,-215.7C507.03,-206.88 521.14,-196.03 533.56,-186.47"/>
<polygon fill="black" stroke="black" points="536.05,-188.98 541.84,-180.1 531.78,-183.43 536.05,-188.98"/>
</g>
<!-- org.apache.ibatis.transaction.jdbc -->
<g id="node7" class="node">
<title>org.apache.ibatis.transaction.jdbc</title>
<polygon fill="none" stroke="#ff4040" points="873.95,-180 670.2,-180 670.2,-144 873.95,-144 873.95,-180"/>
<text text-anchor="middle" x="772.08" y="-157.8" font-family="Times,serif" font-size="14.00">org.apache.ibatis.transaction.jdbc</text>
</g>
<!-- com.sankuai.inf.leaf.segment.dao.impl&#45;&gt;org.apache.ibatis.transaction.jdbc -->
<g id="edge6" class="edge">
<title>com.sankuai.inf.leaf.segment.dao.impl&#45;&gt;org.apache.ibatis.transaction.jdbc</title>
<path fill="none" stroke="black" d="M545.84,-215.97C589.24,-205.8 644.48,-192.87 689.51,-182.33"/>
<polygon fill="black" stroke="black" points="690.31,-185.74 699.25,-180.05 688.71,-178.92 690.31,-185.74"/>
</g>
<!-- javax.sql -->
<g id="node8" class="node">
<title>javax.sql</title>
<polygon fill="none" stroke="#ff4040" points="66.23,-180 -0.08,-180 -0.08,-144 66.23,-144 66.23,-180"/>
<text text-anchor="middle" x="33.08" y="-157.8" font-family="Times,serif" font-size="14.00">javax.sql</text>
</g>
<!-- com.sankuai.inf.leaf.segment.dao.impl&#45;&gt;javax.sql -->
<g id="edge7" class="edge">
<title>com.sankuai.inf.leaf.segment.dao.impl&#45;&gt;javax.sql</title>
<path fill="none" stroke="black" d="M356.63,-225.27C279.05,-218.3 175.03,-205.45 76.15,-179.92"/>
<polygon fill="black" stroke="black" points="76.85,-176.48 66.29,-177.33 75.07,-183.25 76.85,-176.48"/>
</g>
<!-- java.util -->
<g id="node9" class="node">
<title>java.util</title>
<polygon fill="none" stroke="#ff4040" points="1262.07,-36 1200.08,-36 1200.08,0 1262.07,0 1262.07,-36"/>
<text text-anchor="middle" x="1231.08" y="-13.8" font-family="Times,serif" font-size="14.00">java.util</text>
</g>
<!-- com.sankuai.inf.leaf.segment.dao.impl&#45;&gt;java.util -->
<g id="edge8" class="edge">
<title>com.sankuai.inf.leaf.segment.dao.impl&#45;&gt;java.util</title>
<path fill="none" stroke="black" d="M589.94,-228.3C693.38,-222.28 835.15,-208.93 883.08,-180 933.33,-149.67 909.82,-103.92 959.08,-72 959.69,-71.61 1114.24,-41.63 1190.07,-26.94"/>
<polygon fill="black" stroke="black" points="1191.07,-30.31 1200.22,-24.97 1189.74,-23.44 1191.07,-30.31"/>
</g>
<!-- com.sankuai.inf.leaf.segment.dao&#45;&gt;com.sankuai.inf.leaf.segment.model -->
<g id="edge9" class="edge">
<title>com.sankuai.inf.leaf.segment.dao&#45;&gt;com.sankuai.inf.leaf.segment.model</title>
<path fill="none" stroke="black" d="M1005.1,-143.97C966.74,-133.91 918.03,-121.14 878.04,-110.65"/>
<polygon fill="black" stroke="black" points="878.9,-107.26 868.34,-108.11 877.13,-114.03 878.9,-107.26"/>
</g>
<!-- com.sankuai.inf.leaf.segment.dao&#45;&gt;java.util -->
<g id="edge10" class="edge">
<title>com.sankuai.inf.leaf.segment.dao&#45;&gt;java.util</title>
<path fill="none" stroke="black" d="M1102.76,-143.78C1119.27,-134.32 1139.13,-121.73 1155.08,-108 1177.24,-88.92 1198.51,-63.15 1212.88,-44.26"/>
<polygon fill="black" stroke="black" points="1215.79,-46.21 1218.98,-36.11 1210.19,-42.02 1215.79,-46.21"/>
</g>
<!-- org.apache.ibatis.annotations -->
<g id="node20" class="node">
<title>org.apache.ibatis.annotations</title>
<polygon fill="none" stroke="#ff4040" points="1146.47,-108 967.68,-108 967.68,-72 1146.47,-72 1146.47,-108"/>
<text text-anchor="middle" x="1057.08" y="-85.8" font-family="Times,serif" font-size="14.00">org.apache.ibatis.annotations</text>
</g>
<!-- com.sankuai.inf.leaf.segment.dao&#45;&gt;org.apache.ibatis.annotations -->
<g id="edge11" class="edge">
<title>com.sankuai.inf.leaf.segment.dao&#45;&gt;org.apache.ibatis.annotations</title>
<path fill="none" stroke="black" d="M1066.86,-143.7C1065.43,-135.98 1063.71,-126.71 1062.11,-118.11"/>
<polygon fill="black" stroke="black" points="1065.52,-117.3 1060.25,-108.1 1058.64,-118.58 1065.52,-117.3"/>
</g>
<!-- com.sankuai.inf.leaf.segment.model&#45;&gt;java.util -->
<g id="edge13" class="edge">
<title>com.sankuai.inf.leaf.segment.model&#45;&gt;java.util</title>
<path fill="none" stroke="black" d="M912.34,-72.99C979.09,-62.96 1066.13,-49.43 1143.08,-36 1158.52,-33.31 1175.44,-30.1 1190.28,-27.2"/>
<polygon fill="black" stroke="black" points="1191.04,-30.62 1200.18,-25.25 1189.69,-23.75 1191.04,-30.62"/>
</g>
<!-- java.util.concurrent.atomic -->
<g id="node17" class="node">
<title>java.util.concurrent.atomic</title>
<polygon fill="none" stroke="#ff4040" points="1134.53,-36 967.63,-36 967.63,0 1134.53,0 1134.53,-36"/>
<text text-anchor="middle" x="1051.08" y="-13.8" font-family="Times,serif" font-size="14.00">java.util.concurrent.atomic</text>
</g>
<!-- com.sankuai.inf.leaf.segment.model&#45;&gt;java.util.concurrent.atomic -->
<g id="edge12" class="edge">
<title>com.sankuai.inf.leaf.segment.model&#45;&gt;java.util.concurrent.atomic</title>
<path fill="none" stroke="black" d="M863.43,-71.97C898.83,-61.97 943.73,-49.3 980.74,-38.85"/>
<polygon fill="black" stroke="black" points="981.78,-42.2 990.46,-36.11 979.88,-35.46 981.78,-42.2"/>
</g>
<!-- java.util.concurrent.locks -->
<g id="node19" class="node">
<title>java.util.concurrent.locks</title>
<polygon fill="none" stroke="#ff4040" points="881.97,-36 724.18,-36 724.18,0 881.97,0 881.97,-36"/>
<text text-anchor="middle" x="803.08" y="-13.8" font-family="Times,serif" font-size="14.00">java.util.concurrent.locks</text>
</g>
<!-- com.sankuai.inf.leaf.segment.model&#45;&gt;java.util.concurrent.locks -->
<g id="edge14" class="edge">
<title>com.sankuai.inf.leaf.segment.model&#45;&gt;java.util.concurrent.locks</title>
<path fill="none" stroke="black" d="M803.08,-71.7C803.08,-63.98 803.08,-54.71 803.08,-46.11"/>
<polygon fill="black" stroke="black" points="806.58,-46.1 803.08,-36.1 799.58,-46.1 806.58,-46.1"/>
</g>
<!-- com.sankuai.inf.leaf.segment -->
<g id="node10" class="node">
<title>com.sankuai.inf.leaf.segment</title>
<polygon fill="none" stroke="black" points="1444.13,-252 1264.02,-252 1264.02,-216 1444.13,-216 1444.13,-252"/>
<text text-anchor="middle" x="1354.08" y="-229.8" font-family="Times,serif" font-size="14.00">com.sankuai.inf.leaf.segment</text>
</g>
<!-- com.sankuai.inf.leaf.segment&#45;&gt;com.sankuai.inf.leaf.segment.dao -->
<g id="edge17" class="edge">
<title>com.sankuai.inf.leaf.segment&#45;&gt;com.sankuai.inf.leaf.segment.dao</title>
<path fill="none" stroke="black" d="M1284.97,-215.97C1243.99,-205.87 1191.91,-193.03 1149.28,-182.52"/>
<polygon fill="black" stroke="black" points="1150.05,-179.11 1139.5,-180.11 1148.37,-185.9 1150.05,-179.11"/>
</g>
<!-- com.sankuai.inf.leaf.segment&#45;&gt;com.sankuai.inf.leaf.segment.model -->
<g id="edge18" class="edge">
<title>com.sankuai.inf.leaf.segment&#45;&gt;com.sankuai.inf.leaf.segment.model</title>
<path fill="none" stroke="black" d="M1264,-230.71C1182.46,-226.37 1060.02,-214.12 959.08,-180 934.67,-171.75 876.77,-137.07 838.79,-113.51"/>
<polygon fill="black" stroke="black" points="840.4,-110.4 830.06,-108.08 836.7,-116.34 840.4,-110.4"/>
</g>
<!-- com.sankuai.inf.leaf.segment&#45;&gt;java.util -->
<g id="edge22" class="edge">
<title>com.sankuai.inf.leaf.segment&#45;&gt;java.util</title>
<path fill="none" stroke="black" d="M1303.27,-215.89C1286.07,-207.64 1268.38,-195.98 1257.08,-180 1228.91,-140.16 1226.88,-80.99 1228.57,-46.57"/>
<polygon fill="black" stroke="black" points="1232.08,-46.53 1229.22,-36.33 1225.09,-46.09 1232.08,-46.53"/>
</g>
<!-- com.sankuai.inf.leaf -->
<g id="node11" class="node">
<title>com.sankuai.inf.leaf</title>
<polygon fill="none" stroke="black" points="1897.98,-180 1768.18,-180 1768.18,-144 1897.98,-144 1897.98,-180"/>
<text text-anchor="middle" x="1833.08" y="-157.8" font-family="Times,serif" font-size="14.00">com.sankuai.inf.leaf</text>
</g>
<!-- com.sankuai.inf.leaf.segment&#45;&gt;com.sankuai.inf.leaf -->
<g id="edge15" class="edge">
<title>com.sankuai.inf.leaf.segment&#45;&gt;com.sankuai.inf.leaf</title>
<path fill="none" stroke="black" d="M1444.17,-219.83C1534.8,-206.59 1672.94,-186.4 1757.88,-173.99"/>
<polygon fill="black" stroke="black" points="1758.57,-177.42 1767.96,-172.52 1757.56,-170.5 1758.57,-177.42"/>
</g>
<!-- com.sankuai.inf.leaf.common -->
<g id="node12" class="node">
<title>com.sankuai.inf.leaf.common</title>
<polygon fill="none" stroke="black" points="1950.47,-108 1767.68,-108 1767.68,-72 1950.47,-72 1950.47,-108"/>
<text text-anchor="middle" x="1859.08" y="-85.8" font-family="Times,serif" font-size="14.00">com.sankuai.inf.leaf.common</text>
</g>
<!-- com.sankuai.inf.leaf.segment&#45;&gt;com.sankuai.inf.leaf.common -->
<g id="edge16" class="edge">
<title>com.sankuai.inf.leaf.segment&#45;&gt;com.sankuai.inf.leaf.common</title>
<path fill="none" stroke="black" d="M1414.29,-215.98C1440.92,-207.18 1472.03,-195.08 1498.08,-180 1519.65,-167.51 1518.43,-154.41 1541.08,-144 1609.13,-112.7 1692.95,-99.64 1757.44,-94.3"/>
<polygon fill="black" stroke="black" points="1757.92,-97.78 1767.62,-93.51 1757.38,-90.8 1757.92,-97.78"/>
</g>
<!-- org.perf4j -->
<g id="node13" class="node">
<title>org.perf4j</title>
<polygon fill="none" stroke="#ff4040" points="1337.67,-180 1266.49,-180 1266.49,-144 1337.67,-144 1337.67,-180"/>
<text text-anchor="middle" x="1302.08" y="-157.8" font-family="Times,serif" font-size="14.00">org.perf4j</text>
</g>
<!-- com.sankuai.inf.leaf.segment&#45;&gt;org.perf4j -->
<g id="edge19" class="edge">
<title>com.sankuai.inf.leaf.segment&#45;&gt;org.perf4j</title>
<path fill="none" stroke="black" d="M1341.22,-215.7C1335.05,-207.39 1327.54,-197.28 1320.75,-188.14"/>
<polygon fill="black" stroke="black" points="1323.56,-186.04 1314.78,-180.1 1317.94,-190.22 1323.56,-186.04"/>
</g>
<!-- org.perf4j.slf4j -->
<g id="node14" class="node">
<title>org.perf4j.slf4j</title>
<polygon fill="none" stroke="#ff4040" points="1456.05,-180 1356.1,-180 1356.1,-144 1456.05,-144 1456.05,-180"/>
<text text-anchor="middle" x="1406.08" y="-157.8" font-family="Times,serif" font-size="14.00">org.perf4j.slf4j</text>
</g>
<!-- com.sankuai.inf.leaf.segment&#45;&gt;org.perf4j.slf4j -->
<g id="edge20" class="edge">
<title>com.sankuai.inf.leaf.segment&#45;&gt;org.perf4j.slf4j</title>
<path fill="none" stroke="black" d="M1366.93,-215.7C1373.1,-207.39 1380.61,-197.28 1387.4,-188.14"/>
<polygon fill="black" stroke="black" points="1390.22,-190.22 1393.37,-180.1 1384.6,-186.04 1390.22,-190.22"/>
</g>
<!-- org.slf4j -->
<g id="node15" class="node">
<title>org.slf4j</title>
<polygon fill="none" stroke="#ff4040" points="1771.62,-36 1708.53,-36 1708.53,0 1771.62,0 1771.62,-36"/>
<text text-anchor="middle" x="1740.08" y="-13.8" font-family="Times,serif" font-size="14.00">org.slf4j</text>
</g>
<!-- com.sankuai.inf.leaf.segment&#45;&gt;org.slf4j -->
<g id="edge21" class="edge">
<title>com.sankuai.inf.leaf.segment&#45;&gt;org.slf4j</title>
<path fill="none" stroke="black" d="M1399.77,-215.89C1420.72,-206.89 1445.25,-194.67 1465.08,-180 1482.52,-167.09 1480.84,-157.18 1498.08,-144 1562.17,-94.99 1648.33,-55.78 1698.67,-35.08"/>
<polygon fill="black" stroke="black" points="1700.3,-38.2 1708.24,-31.19 1697.66,-31.71 1700.3,-38.2"/>
</g>
<!-- java.util.concurrent -->
<g id="node16" class="node">
<title>java.util.concurrent</title>
<polygon fill="none" stroke="#ff4040" points="1674.42,-180 1549.73,-180 1549.73,-144 1674.42,-144 1674.42,-180"/>
<text text-anchor="middle" x="1612.08" y="-157.8" font-family="Times,serif" font-size="14.00">java.util.concurrent</text>
</g>
<!-- com.sankuai.inf.leaf.segment&#45;&gt;java.util.concurrent -->
<g id="edge23" class="edge">
<title>com.sankuai.inf.leaf.segment&#45;&gt;java.util.concurrent</title>
<path fill="none" stroke="black" d="M1416.86,-215.97C1453.83,-205.94 1500.75,-193.2 1539.33,-182.74"/>
<polygon fill="black" stroke="black" points="1540.72,-185.99 1549.46,-179.99 1538.89,-179.23 1540.72,-185.99"/>
</g>
<!-- com.sankuai.inf.leaf.segment&#45;&gt;java.util.concurrent.atomic -->
<g id="edge24" class="edge">
<title>com.sankuai.inf.leaf.segment&#45;&gt;java.util.concurrent.atomic</title>
<path fill="none" stroke="black" d="M1301.24,-215.89C1279.64,-207.28 1255.28,-195.36 1236.08,-180 1189.22,-142.52 1200.99,-110.62 1155.08,-72 1140.16,-59.45 1121.77,-48.85 1104.62,-40.51"/>
<polygon fill="black" stroke="black" points="1105.79,-37.19 1095.26,-36.1 1102.82,-43.53 1105.79,-37.19"/>
</g>
<!-- com.sankuai.inf.leaf&#45;&gt;com.sankuai.inf.leaf.common -->
<g id="edge25" class="edge">
<title>com.sankuai.inf.leaf&#45;&gt;com.sankuai.inf.leaf.common</title>
<path fill="none" stroke="black" d="M1833.59,-143.7C1835.73,-135.73 1839.09,-126.1 1842.76,-117.26"/>
<polygon fill="black" stroke="black" points="1845.97,-118.66 1846.83,-108.1 1839.57,-115.82 1845.97,-118.66"/>
</g>
<!-- com.sankuai.inf.leaf.common&#45;&gt;java.util -->
<g id="edge28" class="edge">
<title>com.sankuai.inf.leaf.common&#45;&gt;java.util</title>
<path fill="none" stroke="black" d="M1767.76,-78.82C1629.27,-63.38 1371.72,-34.68 1272,-23.56"/>
<polygon fill="black" stroke="black" points="1272.34,-20.08 1262.01,-22.45 1271.56,-27.03 1272.34,-20.08"/>
</g>
<!-- com.sankuai.inf.leaf.common&#45;&gt;com.sankuai.inf.leaf -->
<g id="edge30" class="edge">
<title>com.sankuai.inf.leaf.common&#45;&gt;com.sankuai.inf.leaf</title>
<path fill="none" stroke="black" d="M1858.62,-108.1C1856.5,-116.04 1853.15,-125.67 1849.48,-134.51"/>
<polygon fill="black" stroke="black" points="1846.27,-133.14 1845.42,-143.7 1852.67,-135.97 1846.27,-133.14"/>
</g>
<!-- com.sankuai.inf.leaf.common&#45;&gt;org.slf4j -->
<g id="edge26" class="edge">
<title>com.sankuai.inf.leaf.common&#45;&gt;org.slf4j</title>
<path fill="none" stroke="black" d="M1829.97,-71.88C1814.41,-62.72 1795.06,-51.34 1778.3,-41.48"/>
<polygon fill="black" stroke="black" points="1779.69,-38.24 1769.3,-36.19 1776.14,-44.28 1779.69,-38.24"/>
</g>
<!-- java.io -->
<g id="node21" class="node">
<title>java.io</title>
<polygon fill="none" stroke="#ff4040" points="3004.08,-36 2950.08,-36 2950.08,0 3004.08,0 3004.08,-36"/>
<text text-anchor="middle" x="2977.08" y="-13.8" font-family="Times,serif" font-size="14.00">java.io</text>
</g>
<!-- com.sankuai.inf.leaf.common&#45;&gt;java.io -->
<g id="edge27" class="edge">
<title>com.sankuai.inf.leaf.common&#45;&gt;java.io</title>
<path fill="none" stroke="black" d="M1950.57,-83.27C2182.01,-68.78 2783.49,-31.12 2939.61,-21.35"/>
<polygon fill="black" stroke="black" points="2939.9,-24.83 2949.66,-20.72 2939.46,-17.85 2939.9,-24.83"/>
</g>
<!-- java.net -->
<g id="node22" class="node">
<title>java.net</title>
<polygon fill="none" stroke="#ff4040" points="1889,-36 1829.15,-36 1829.15,0 1889,0 1889,-36"/>
<text text-anchor="middle" x="1859.08" y="-13.8" font-family="Times,serif" font-size="14.00">java.net</text>
</g>
<!-- com.sankuai.inf.leaf.common&#45;&gt;java.net -->
<g id="edge29" class="edge">
<title>com.sankuai.inf.leaf.common&#45;&gt;java.net</title>
<path fill="none" stroke="black" d="M1859.08,-71.7C1859.08,-63.98 1859.08,-54.71 1859.08,-46.11"/>
<polygon fill="black" stroke="black" points="1862.58,-46.1 1859.08,-36.1 1855.58,-46.1 1862.58,-46.1"/>
</g>
<!-- com.sankuai.inf.leaf.snowflake.exception -->
<g id="node18" class="node">
<title>com.sankuai.inf.leaf.snowflake.exception</title>
<polygon fill="none" stroke="black" points="2164.44,-180 1915.72,-180 1915.72,-144 2164.44,-144 2164.44,-180"/>
<text text-anchor="middle" x="2040.08" y="-157.8" font-family="Times,serif" font-size="14.00">com.sankuai.inf.leaf.snowflake.exception</text>
</g>
<!-- com.sankuai.inf.leaf.snowflake -->
<g id="node23" class="node">
<title>com.sankuai.inf.leaf.snowflake</title>
<polygon fill="none" stroke="black" points="2933.51,-252 2742.64,-252 2742.64,-216 2933.51,-216 2933.51,-252"/>
<text text-anchor="middle" x="2838.08" y="-229.8" font-family="Times,serif" font-size="14.00">com.sankuai.inf.leaf.snowflake</text>
</g>
<!-- com.sankuai.inf.leaf.snowflake&#45;&gt;java.util -->
<g id="edge35" class="edge">
<title>com.sankuai.inf.leaf.snowflake&#45;&gt;java.util</title>
<path fill="none" stroke="black" d="M2742.33,-231.57C2491.1,-227.38 1825.84,-213.25 1732.08,-180 1706.61,-170.97 1707.39,-155.8 1683.08,-144 1540.77,-74.95 1354.14,-38.72 1272.42,-25.25"/>
<polygon fill="black" stroke="black" points="1272.49,-21.72 1262.06,-23.58 1271.37,-28.63 1272.49,-21.72"/>
</g>
<!-- com.sankuai.inf.leaf.snowflake&#45;&gt;com.sankuai.inf.leaf -->
<g id="edge32" class="edge">
<title>com.sankuai.inf.leaf.snowflake&#45;&gt;com.sankuai.inf.leaf</title>
<path fill="none" stroke="black" d="M2742.39,-232.87C2574.91,-231.47 2217.78,-223.28 1908.4,-180.04"/>
<polygon fill="black" stroke="black" points="1908.73,-176.55 1898.34,-178.62 1907.75,-183.49 1908.73,-176.55"/>
</g>
<!-- com.sankuai.inf.leaf.snowflake&#45;&gt;com.sankuai.inf.leaf.common -->
<g id="edge33" class="edge">
<title>com.sankuai.inf.leaf.snowflake&#45;&gt;com.sankuai.inf.leaf.common</title>
<path fill="none" stroke="black" d="M2933.87,-232.04C3199.43,-228.91 3927.8,-216.98 3963.08,-180 3974.12,-168.42 3974.25,-155.46 3963.08,-144 3927.74,-107.76 2376.41,-94.54 1960.67,-91.65"/>
<polygon fill="black" stroke="black" points="1960.5,-88.15 1950.48,-91.58 1960.45,-95.15 1960.5,-88.15"/>
</g>
<!-- com.sankuai.inf.leaf.snowflake&#45;&gt;org.slf4j -->
<g id="edge34" class="edge">
<title>com.sankuai.inf.leaf.snowflake&#45;&gt;org.slf4j</title>
<path fill="none" stroke="black" d="M2742.26,-231.62C2484.75,-227.47 1794.72,-213.28 1759.08,-180 1722.76,-146.08 1727.5,-82.36 1733.94,-46.08"/>
<polygon fill="black" stroke="black" points="1737.39,-46.68 1735.86,-36.2 1730.52,-45.35 1737.39,-46.68"/>
</g>
<!-- com.sankuai.inf.leaf.snowflake&#45;&gt;java.util.concurrent -->
<g id="edge47" class="edge">
<title>com.sankuai.inf.leaf.snowflake&#45;&gt;java.util.concurrent</title>
<path fill="none" stroke="black" d="M2742.21,-230.73C2504.17,-224.75 1890.76,-207.13 1688.08,-180 1686.97,-179.85 1685.86,-179.7 1684.74,-179.53"/>
<polygon fill="black" stroke="black" points="1684.98,-176.03 1674.55,-177.88 1683.86,-182.94 1684.98,-176.03"/>
</g>
<!-- com.sankuai.inf.leaf.snowflake&#45;&gt;com.sankuai.inf.leaf.snowflake.exception -->
<g id="edge38" class="edge">
<title>com.sankuai.inf.leaf.snowflake&#45;&gt;com.sankuai.inf.leaf.snowflake.exception</title>
<path fill="none" stroke="black" d="M2742.56,-226.78C2615.52,-218.19 2383.72,-201.42 2174.77,-180.04"/>
<polygon fill="black" stroke="black" points="2174.83,-176.53 2164.52,-178.99 2174.11,-183.49 2174.83,-176.53"/>
</g>
<!-- com.sankuai.inf.leaf.snowflake&#45;&gt;java.io -->
<g id="edge46" class="edge">
<title>com.sankuai.inf.leaf.snowflake&#45;&gt;java.io</title>
<path fill="none" stroke="black" d="M2933.96,-232.11C3202.55,-229.16 3945.15,-217.63 3981.08,-180 4120.3,-34.17 3211.74,-20.4 3014.37,-19.13"/>
<polygon fill="black" stroke="black" points="3014.23,-15.62 3004.21,-19.07 3014.19,-22.62 3014.23,-15.62"/>
</g>
<!-- com.google.common.base -->
<g id="node24" class="node">
<title>com.google.common.base</title>
<polygon fill="none" stroke="#ff4040" points="2345.16,-180 2183,-180 2183,-144 2345.16,-144 2345.16,-180"/>
<text text-anchor="middle" x="2264.08" y="-157.8" font-family="Times,serif" font-size="14.00">com.google.common.base</text>
</g>
<!-- com.sankuai.inf.leaf.snowflake&#45;&gt;com.google.common.base -->
<g id="edge31" class="edge">
<title>com.sankuai.inf.leaf.snowflake&#45;&gt;com.google.common.base</title>
<path fill="none" stroke="black" d="M2742.29,-224.72C2646.74,-215.96 2495.56,-200.72 2355.53,-180.16"/>
<polygon fill="black" stroke="black" points="2355.87,-176.67 2345.46,-178.67 2354.84,-183.59 2355.87,-176.67"/>
</g>
<!-- com.fasterxml.jackson.core -->
<g id="node25" class="node">
<title>com.fasterxml.jackson.core</title>
<polygon fill="none" stroke="#ff4040" points="2533.4,-180 2362.75,-180 2362.75,-144 2533.4,-144 2533.4,-180"/>
<text text-anchor="middle" x="2448.08" y="-157.8" font-family="Times,serif" font-size="14.00">com.fasterxml.jackson.core</text>
</g>
<!-- com.sankuai.inf.leaf.snowflake&#45;&gt;com.fasterxml.jackson.core -->
<g id="edge36" class="edge">
<title>com.sankuai.inf.leaf.snowflake&#45;&gt;com.fasterxml.jackson.core</title>
<path fill="none" stroke="black" d="M2742.76,-215.98C2687.35,-206.07 2615.89,-193.28 2543.59,-180.27"/>
<polygon fill="black" stroke="black" points="2543.84,-176.76 2533.38,-178.43 2542.6,-183.65 2543.84,-176.76"/>
</g>
<!-- com.fasterxml.jackson.databind -->
<g id="node26" class="node">
<title>com.fasterxml.jackson.databind</title>
<polygon fill="none" stroke="#ff4040" points="2745.52,-180 2550.63,-180 2550.63,-144 2745.52,-144 2745.52,-180"/>
<text text-anchor="middle" x="2648.08" y="-157.8" font-family="Times,serif" font-size="14.00">com.fasterxml.jackson.databind</text>
</g>
<!-- com.sankuai.inf.leaf.snowflake&#45;&gt;com.fasterxml.jackson.databind -->
<g id="edge37" class="edge">
<title>com.sankuai.inf.leaf.snowflake&#45;&gt;com.fasterxml.jackson.databind</title>
<path fill="none" stroke="black" d="M2791.6,-215.88C2765.16,-206.14 2731.87,-193.87 2704.01,-183.61"/>
<polygon fill="black" stroke="black" points="2705,-180.24 2694.41,-180.07 2702.58,-186.81 2705,-180.24"/>
</g>
<!-- org.apache.commons.io -->
<g id="node27" class="node">
<title>org.apache.commons.io</title>
<polygon fill="none" stroke="#ff4040" points="2912.93,-180 2763.23,-180 2763.23,-144 2912.93,-144 2912.93,-180"/>
<text text-anchor="middle" x="2838.08" y="-157.8" font-family="Times,serif" font-size="14.00">org.apache.commons.io</text>
</g>
<!-- com.sankuai.inf.leaf.snowflake&#45;&gt;org.apache.commons.io -->
<g id="edge39" class="edge">
<title>com.sankuai.inf.leaf.snowflake&#45;&gt;org.apache.commons.io</title>
<path fill="none" stroke="black" d="M2838.08,-215.7C2838.08,-207.98 2838.08,-198.71 2838.08,-190.11"/>
<polygon fill="black" stroke="black" points="2841.58,-190.1 2838.08,-180.1 2834.58,-190.1 2841.58,-190.1"/>
</g>
<!-- org.apache.curator.framework -->
<g id="node28" class="node">
<title>org.apache.curator.framework</title>
<polygon fill="none" stroke="#ff4040" points="3115.65,-180 2930.51,-180 2930.51,-144 3115.65,-144 3115.65,-180"/>
<text text-anchor="middle" x="3023.08" y="-157.8" font-family="Times,serif" font-size="14.00">org.apache.curator.framework</text>
</g>
<!-- com.sankuai.inf.leaf.snowflake&#45;&gt;org.apache.curator.framework -->
<g id="edge40" class="edge">
<title>com.sankuai.inf.leaf.snowflake&#45;&gt;org.apache.curator.framework</title>
<path fill="none" stroke="black" d="M2883.33,-215.88C2909.07,-206.14 2941.49,-193.87 2968.61,-183.61"/>
<polygon fill="black" stroke="black" points="2969.85,-186.88 2977.97,-180.07 2967.38,-180.33 2969.85,-186.88"/>
</g>
<!-- org.apache.curator.retry -->
<g id="node29" class="node">
<title>org.apache.curator.retry</title>
<polygon fill="none" stroke="#ff4040" points="3284.16,-180 3133.99,-180 3133.99,-144 3284.16,-144 3284.16,-180"/>
<text text-anchor="middle" x="3209.08" y="-157.8" font-family="Times,serif" font-size="14.00">org.apache.curator.retry</text>
</g>
<!-- com.sankuai.inf.leaf.snowflake&#45;&gt;org.apache.curator.retry -->
<g id="edge41" class="edge">
<title>com.sankuai.inf.leaf.snowflake&#45;&gt;org.apache.curator.retry</title>
<path fill="none" stroke="black" d="M2932.52,-215.98C2986.01,-206.24 3054.44,-193.61 3124.14,-180.17"/>
<polygon fill="black" stroke="black" points="3124.83,-183.6 3133.98,-178.26 3123.5,-176.72 3124.83,-183.6"/>
</g>
<!-- org.apache.zookeeper.data -->
<g id="node30" class="node">
<title>org.apache.zookeeper.data</title>
<polygon fill="none" stroke="#ff4040" points="3466.44,-180 3301.72,-180 3301.72,-144 3466.44,-144 3466.44,-180"/>
<text text-anchor="middle" x="3384.08" y="-157.8" font-family="Times,serif" font-size="14.00">org.apache.zookeeper.data</text>
</g>
<!-- com.sankuai.inf.leaf.snowflake&#45;&gt;org.apache.zookeeper.data -->
<g id="edge42" class="edge">
<title>com.sankuai.inf.leaf.snowflake&#45;&gt;org.apache.zookeeper.data</title>
<path fill="none" stroke="black" d="M2933.76,-223.79C3023.67,-214.68 3162.18,-199.52 3291.23,-180.23"/>
<polygon fill="black" stroke="black" points="3291.92,-183.67 3301.29,-178.72 3290.88,-176.74 3291.92,-183.67"/>
</g>
<!-- com.google.common.collect -->
<g id="node31" class="node">
<title>com.google.common.collect</title>
<polygon fill="none" stroke="#ff4040" points="3659.6,-180 3484.56,-180 3484.56,-144 3659.6,-144 3659.6,-180"/>
<text text-anchor="middle" x="3572.08" y="-157.8" font-family="Times,serif" font-size="14.00">com.google.common.collect</text>
</g>
<!-- com.sankuai.inf.leaf.snowflake&#45;&gt;com.google.common.collect -->
<g id="edge43" class="edge">
<title>com.sankuai.inf.leaf.snowflake&#45;&gt;com.google.common.collect</title>
<path fill="none" stroke="black" d="M2933.6,-227.76C3056.37,-220.41 3276.26,-205.2 3474.35,-180.02"/>
<polygon fill="black" stroke="black" points="3474.89,-183.48 3484.36,-178.74 3474,-176.54 3474.89,-183.48"/>
</g>
<!-- org.apache.curator -->
<g id="node32" class="node">
<title>org.apache.curator</title>
<polygon fill="none" stroke="#ff4040" points="3798.24,-180 3677.92,-180 3677.92,-144 3798.24,-144 3798.24,-180"/>
<text text-anchor="middle" x="3738.08" y="-157.8" font-family="Times,serif" font-size="14.00">org.apache.curator</text>
</g>
<!-- com.sankuai.inf.leaf.snowflake&#45;&gt;org.apache.curator -->
<g id="edge44" class="edge">
<title>com.sankuai.inf.leaf.snowflake&#45;&gt;org.apache.curator</title>
<path fill="none" stroke="black" d="M2933.7,-232.41C3087.01,-230.25 3397.23,-220.87 3667.97,-180"/>
<polygon fill="black" stroke="black" points="3668.64,-183.44 3677.99,-178.47 3667.58,-176.52 3668.64,-183.44"/>
</g>
<!-- org.apache.zookeeper -->
<g id="node33" class="node">
<title>org.apache.zookeeper</title>
<polygon fill="none" stroke="#ff4040" points="3954.12,-180 3816.04,-180 3816.04,-144 3954.12,-144 3954.12,-180"/>
<text text-anchor="middle" x="3885.08" y="-157.8" font-family="Times,serif" font-size="14.00">org.apache.zookeeper</text>
</g>
<!-- com.sankuai.inf.leaf.snowflake&#45;&gt;org.apache.zookeeper -->
<g id="edge45" class="edge">
<title>com.sankuai.inf.leaf.snowflake&#45;&gt;org.apache.zookeeper</title>
<path fill="none" stroke="black" d="M2933.8,-232.82C3106.46,-231.4 3481.44,-223.22 3805.79,-180.04"/>
<polygon fill="black" stroke="black" points="3806.41,-183.49 3815.86,-178.69 3805.48,-176.55 3806.41,-183.49"/>
</g>
</g>
</svg>
